<mxfile host="app.diagrams.net" modified="2024-03-24T20:08:11.483Z" agent="Mozilla/5.0 (Windows NT 10.0; Win64; x64) AppleWebKit/537.36 (KHTML, like Gecko) Chrome/122.0.0.0 Safari/537.36 Edg/122.0.0.0" etag="ImkK5sD9B155G3TjubAz" version="24.0.8" type="github">
  <diagram name="Strona-1" id="a5kQo_wBj7EuYgMKon16">
    <mxGraphModel dx="1107" dy="476" grid="1" gridSize="10" guides="1" tooltips="1" connect="1" arrows="1" fold="1" page="1" pageScale="1" pageWidth="827" pageHeight="1169" math="0" shadow="0">
      <root>
        <mxCell id="0" />
        <mxCell id="1" parent="0" />
        <mxCell id="TodrPXdrXV3LAKytXEL5-1" value="&lt;span style=&quot;-webkit-user-drag: none; -webkit-tap-highlight-color: transparent; margin: 0px; padding: 0px; user-select: text; font-family: Calibri, Calibri_EmbeddedFont, Calibri_MSFontService, sans-serif; font-size: 14.6667px; font-variant-ligatures: none; text-align: left; white-space-collapse: preserve; background-color: rgb(255, 255, 255);&quot; class=&quot;NormalTextRun SCXW131485876 BCX0&quot;&gt; System&lt;/span&gt;&lt;span style=&quot;-webkit-user-drag: none; -webkit-tap-highlight-color: transparent; margin: 0px; padding: 0px; user-select: text; font-family: Calibri, Calibri_EmbeddedFont, Calibri_MSFontService, sans-serif; font-size: 14.6667px; font-variant-ligatures: none; text-align: left; white-space-collapse: preserve; background-color: rgb(255, 255, 255);&quot; class=&quot;NormalTextRun SCXW131485876 BCX0&quot;&gt; poÅ›rednictwa zakupowego&lt;/span&gt;&lt;span style=&quot;-webkit-user-drag: none; -webkit-tap-highlight-color: transparent; margin: 0px; padding: 0px; user-select: text; font-family: Calibri, Calibri_EmbeddedFont, Calibri_MSFontService, sans-serif; font-size: 14.6667px; font-variant-ligatures: none; text-align: left; white-space-collapse: preserve; background-color: rgb(255, 255, 255);&quot; class=&quot;NormalTextRun SCXW131485876 BCX0&quot;&gt; platformy handlowej&lt;/span&gt;" style="rounded=0;whiteSpace=wrap;html=1;" parent="1" vertex="1">
          <mxGeometry x="339" y="320" width="150" height="120" as="geometry" />
        </mxCell>
        <mxCell id="qRvy4Rh8V-49eXm2t0Ph-1" value="Sklepy partnerskie" style="shape=umlActor;verticalLabelPosition=bottom;verticalAlign=top;html=1;outlineConnect=0;" vertex="1" parent="1">
          <mxGeometry x="570" y="290" width="30" height="60" as="geometry" />
        </mxCell>
        <mxCell id="qRvy4Rh8V-49eXm2t0Ph-2" value="" style="endArrow=none;html=1;rounded=0;entryX=0.5;entryY=0.5;entryDx=0;entryDy=0;entryPerimeter=0;" edge="1" parent="1">
          <mxGeometry width="50" height="50" relative="1" as="geometry">
            <mxPoint x="489" y="379.5" as="sourcePoint" />
            <mxPoint x="584" y="320" as="targetPoint" />
          </mxGeometry>
        </mxCell>
      </root>
    </mxGraphModel>
  </diagram>
</mxfile>
